<svg width="35" height="35" viewBox="0 0 35 35" fill="none" xmlns="http://www.w3.org/2000/svg">
<path d="M3.5 10.5H4C5.925 10.5 7.5 12.075 7.5 14V31.5C7.5 33.425 5.925 35 4 35H3.5C1.575 35 0 33.425 0 31.5V14C0 12.075 1.575 10.5 3.5 10.5ZM17.5 0C19.425 0 21 1.575 21 3.5V31.5C21 33.425 19.425 35 17.5 35C15.575 35 14 33.425 14 31.5V3.5C14 1.575 15.575 0 17.5 0ZM31.5 20C33.425 20 35 21.575 35 23.5V31.5C35 33.425 33.425 35 31.5 35C29.575 35 28 33.425 28 31.5V23.5C28 21.575 29.575 20 31.5 20Z" fill="#F7A600"/>
</svg>
