<svg width="16" height="24" viewBox="0 0 16 24" fill="none" xmlns="http://www.w3.org/2000/svg">
<path d="M13 5.70711V10.5C13 10.7761 13.2239 11 13.5 11C13.7761 11 14 10.7761 14 10.5V5.70711L15.1464 6.85355C15.3417 7.04882 15.6583 7.04882 15.8536 6.85355C16.0488 6.65829 16.0488 6.34171 15.8536 6.14645L13.8536 4.14645C13.8056 4.09851 13.7504 4.06234 13.6914 4.03794C13.6324 4.01349 13.5678 4 13.5 4C13.4322 4 13.3676 4.01349 13.3086 4.03794C13.2496 4.06234 13.1944 4.09851 13.1464 4.14645L11.1464 6.14645C10.9512 6.34171 10.9512 6.65829 11.1464 6.85355C11.3417 7.04882 11.6583 7.04882 11.8536 6.85355L13 5.70711ZM0 6.5C0 6.22386 0.223858 6 0.5 6H6.5C6.77614 6 7 6.22386 7 6.5C7 6.77614 6.77614 7 6.5 7H0.5C0.223858 7 0 6.77614 0 6.5ZM0 11.5C0 11.2239 0.223858 11 0.5 11H9.5C9.77614 11 10 11.2239 10 11.5C10 11.7761 9.77614 12 9.5 12H0.5C0.223858 12 0 11.7761 0 11.5ZM0.5 16C0.223858 16 0 16.2239 0 16.5C0 16.7761 0.223858 17 0.5 17H6.5C6.77614 17 7 16.7761 7 16.5C7 16.2239 6.77614 16 6.5 16H0.5ZM13 18.2929V13.5C13 13.2239 13.2239 13 13.5 13C13.7761 13 14 13.2239 14 13.5V18.2929L15.1464 17.1464C15.3417 16.9512 15.6583 16.9512 15.8536 17.1464C16.0488 17.3417 16.0488 17.6583 15.8536 17.8536L13.8536 19.8536C13.8056 19.9015 13.7504 19.9377 13.6914 19.9621C13.6324 19.9865 13.5678 20 13.5 20C13.4322 20 13.3676 19.9865 13.3086 19.9621C13.2496 19.9377 13.1944 19.9015 13.1464 19.8536L11.1464 17.8536C10.9512 17.6583 10.9512 17.3417 11.1464 17.1464C11.3417 16.9512 11.6583 16.9512 11.8536 17.1464L13 18.2929Z" fill="#14142B"/>
</svg>
