<svg width="24" height="24" viewBox="0 0 24 24" fill="none" xmlns="http://www.w3.org/2000/svg">
<path d="M18.0498 16.5869L18.0383 16.5524L13.7177 6.17632C13.5949 5.83336 13.3751 5.52762 13.0488 5.31011C12.7591 5.11701 12.4335 5.01777 12.0962 5.00712C11.7008 4.97164 11.3147 5.06874 10.9801 5.298C10.6581 5.515 10.4416 5.81531 10.3029 6.13234L10.2987 6.14199L5.91638 16.7627L5.8977 16.8748C5.87749 16.9961 5.8501 17.169 5.8501 17.3112C5.8501 17.7292 5.9778 18.1761 6.32999 18.5283C6.70035 18.8986 7.17334 19.0082 7.5811 19.0082C7.93785 19.0082 8.28068 18.9036 8.57778 18.6927C8.89534 18.4756 9.10986 18.1738 9.23046 17.836L10.0015 15.9652H13.9216L14.725 17.8701L14.7329 17.887C14.8653 18.1708 15.0534 18.4346 15.3119 18.6461L15.3497 18.6771L15.3904 18.7042C15.6854 18.9009 16.0248 19.0082 16.3871 19.0082C16.8564 19.0082 17.2796 18.8294 17.6081 18.5072C17.972 18.1625 18.1521 17.7102 18.1521 17.2262C18.1521 17.0112 18.1196 16.7963 18.0498 16.5869ZM17.1521 17.2262C17.1521 17.4528 17.0728 17.6398 16.9141 17.7872C16.7668 17.9345 16.5911 18.0082 16.3871 18.0082C16.2284 18.0082 16.0811 17.9628 15.9451 17.8722C15.8204 17.7702 15.7184 17.6342 15.6391 17.4642L14.5851 14.9652H9.3321L8.2951 17.4812C8.23843 17.6512 8.1421 17.7815 8.0061 17.8722C7.88143 17.9628 7.73976 18.0082 7.5811 18.0082C7.3431 18.0082 7.16176 17.9458 7.0371 17.8212C6.91243 17.6965 6.8501 17.5265 6.8501 17.3112C6.8501 17.2658 6.86143 17.1752 6.8841 17.0392L11.2191 6.53315C11.2984 6.35182 11.4061 6.21582 11.5421 6.12515C11.6894 6.02315 11.8538 5.98348 12.0351 6.00615C12.2051 6.00615 12.3581 6.05148 12.4941 6.14215C12.6301 6.23282 12.7264 6.36315 12.7831 6.53315L17.1011 16.9032C17.1351 17.0052 17.1521 17.1128 17.1521 17.2262ZM9.978 13.4182H13.939L11.95 8.65816L9.978 13.4182ZM11.954 11.2613L12.4374 12.4182H11.4747L11.954 11.2613Z" fill="white"/>
</svg>
