<svg width="12" height="12" viewBox="0 0 12 12" fill="none" xmlns="http://www.w3.org/2000/svg">
<path d="M3 2.475C3 1.95 3.45 1.5 3.975 1.5H6.45C7.95 1.5 9.075 2.775 9.075 4.125C9.075 4.65 8.925 5.175 8.625 5.55C9.15 6 9.525 6.75 9.525 7.65C9.525 9.45 8.025 10.425 6.75 10.425H3.975C3.45 10.5 3 10.05 3 9.525V2.475ZM4.95 3.45V4.875H6.45C6.825 4.875 7.2 4.575 7.2 4.125C7.2 3.75 6.9 3.375 6.45 3.375H4.95V3.45ZM4.95 6.825V8.625H6.75C7.2 8.625 7.65 8.25 7.65 7.725C7.65 7.2 7.2 6.825 6.75 6.825H4.95Z" fill="white" fill-opacity="0.6"/>
</svg>
