<svg width="24" height="24" viewBox="0 0 24 24" fill="none" xmlns="http://www.w3.org/2000/svg">
<path d="M20.47 5.63002C20.86 6.02002 20.86 6.64002 20.47 7.03002L9.13001 18.37C8.74001 18.76 8.12001 18.76 7.73001 18.37L3.53001 14.17C3.14001 13.78 3.14001 13.16 3.53001 12.77C3.92001 12.38 4.54001 12.38 4.93001 12.77L8.43001 16.27L19.07 5.63002C19.46 5.24002 20.08 5.24002 20.47 5.63002ZM18.36 3.51002L8.43001 13.44L5.64001 10.65C4.86001 9.87002 3.59001 9.87002 2.81001 10.65L1.41001 12.05C0.630012 12.83 0.630012 14.1 1.41001 14.88L7.01001 20.48C7.79001 21.26 9.06001 21.26 9.84001 20.48L22.59 7.74002C23.37 6.96002 23.37 5.69002 22.59 4.91002L21.19 3.51002C20.4 2.73002 19.14 2.73002 18.36 3.51002Z" fill="#1D1B20"/>
</svg>
