<svg width="18" height="18" viewBox="0 0 18 18" fill="none" xmlns="http://www.w3.org/2000/svg">
<path d="M4.12367 6.31669e-10C4.43615 1.28279e-05 4.71585 0.193876 4.82556 0.486491L7.41461 7.39202L6.59975 9.48939L6.13323 8.24508H2.11337L1.45174 10.0093C1.30635 10.397 0.874243 10.5934 0.486596 10.448C0.0989489 10.3026 -0.0974421 9.87048 0.0479446 9.4828L3.42174 0.486434C3.53147 0.193828 3.81119 -1.2777e-05 4.12367 6.31669e-10ZM2.67567 6.74567H5.57107L4.12355 2.88484L2.67567 6.74567ZM7.05115 12.4676C7.04672 12.4782 7.04254 12.489 7.0386 12.4999L5.48705 16.4934H5.24765C4.83364 16.4934 4.49802 16.8291 4.49802 17.2431C4.49802 17.6572 4.83364 17.9928 5.24765 17.9928H5.8942C5.96344 18.0025 6.03271 18.0023 6.10018 17.9928H8.24621C8.66022 17.9928 8.99585 17.6572 8.99585 17.2431C8.99585 16.8291 8.66022 16.4934 8.24621 16.4934H7.09552L8.25665 13.5048H14.2295L15.3933 16.5004H14.2473C13.8333 16.5004 13.4977 16.8361 13.4977 17.2501C13.4977 17.6642 13.8333 17.9998 14.2473 17.9998H16.4738C16.4839 18.0001 16.494 18.0001 16.5042 17.9998H17.2504C17.6644 17.9998 18 17.6642 18 17.2501C18 16.8361 17.6644 16.5004 17.2504 16.5004H17.0018L11.9418 3.47653C11.8298 3.18826 11.5523 2.99835 11.2431 2.99835C10.9338 2.99835 10.6563 3.18826 10.5443 3.47653L7.05115 12.4676ZM13.6469 12.0054H8.83919L11.2431 5.81808L13.6469 12.0054Z" fill="#1D1B20"/>
</svg>
