<svg width="18" height="18" viewBox="0 0 18 18" fill="none" xmlns="http://www.w3.org/2000/svg">
<path d="M11.625 10.4999H11.0325L10.8225 10.2974C11.7225 9.24742 12.1875 7.81492 11.9325 6.29242C11.58 4.20742 9.83998 2.54242 7.73998 2.28742C4.56748 1.89742 1.89748 4.56742 2.28748 7.73992C2.54248 9.83992 4.20748 11.5799 6.29248 11.9324C7.81498 12.1874 9.24748 11.7224 10.2975 10.8224L10.5 11.0324V11.6249L13.6875 14.8124C13.995 15.1199 14.4975 15.1199 14.805 14.8124C15.1125 14.5049 15.1125 14.0024 14.805 13.6949L11.625 10.4999ZM7.12498 10.4999C5.25748 10.4999 3.74998 8.99242 3.74998 7.12492C3.74998 5.25742 5.25748 3.74992 7.12498 3.74992C8.99248 3.74992 10.5 5.25742 10.5 7.12492C10.5 8.99242 8.99248 10.4999 7.12498 10.4999Z" fill="#1D1B20"/>
</svg>
