<svg width="18" height="18" viewBox="0 0 18 18" fill="none" xmlns="http://www.w3.org/2000/svg">
<path fill-rule="evenodd" clip-rule="evenodd" d="M11.4825 15.7725C11.4075 16.2825 10.9425 16.6875 10.3875 16.6875H7.61249C7.05749 16.6875 6.59249 16.2825 6.52499 15.735L6.32249 14.3175C6.11999 14.2125 5.92499 14.1 5.72999 13.9725L4.37999 14.5125C3.85499 14.7075 3.27749 14.49 3.02249 14.025L1.64999 11.6475C1.38749 11.1525 1.49999 10.5675 1.91999 10.2375L3.06749 9.34501C3.05999 9.23251 3.05249 9.12001 3.05249 9.00001C3.05249 8.88751 3.05999 8.76751 3.06749 8.65501L1.92749 7.76251C1.48499 7.42501 1.37249 6.81751 1.64999 6.35251L3.03749 3.96001C3.29249 3.49501 3.86999 3.28501 4.37999 3.48751L5.73749 4.03501C5.93249 3.90751 6.12749 3.79501 6.32249 3.69001L6.52499 2.25751C6.59249 1.73251 7.05749 1.32001 7.60499 1.32001H10.38C10.935 1.32001 11.4 1.72501 11.4675 2.27251L11.67 3.69001C11.8725 3.79501 12.0675 3.90751 12.2625 4.03501L13.6125 3.49501C14.145 3.30001 14.7225 3.51751 14.9775 3.98251L16.3575 6.36751C16.6275 6.86251 16.5075 7.44751 16.0875 7.77751L14.9475 8.67001C14.955 8.78251 14.9625 8.89501 14.9625 9.01501C14.9625 9.13501 14.955 9.24751 14.9475 9.36001L16.0875 10.2525C16.5075 10.59 16.6275 11.175 16.365 11.6475L14.97 14.0625C14.715 14.5275 14.1375 14.7375 13.62 14.535L12.27 13.995C12.075 14.1225 11.88 14.235 11.685 14.34L11.4825 15.7725ZM7.96499 15.1875H10.035L10.3125 13.275L10.71 13.11C11.04 12.975 11.37 12.78 11.715 12.525L12.0525 12.27L13.8375 12.99L14.8725 11.19L13.35 10.005L13.4025 9.58501L13.4048 9.56482C13.4265 9.37704 13.4475 9.1955 13.4475 9.00001C13.4475 8.79751 13.425 8.60251 13.4025 8.41501L13.35 7.99501L14.8725 6.81001L13.83 5.01001L12.0375 5.73001L11.7 5.46751C11.385 5.22751 11.0475 5.03251 10.7025 4.89001L10.3125 4.72501L10.035 2.81251H7.96499L7.68749 4.72501L7.28999 4.88251C6.95999 5.02501 6.62999 5.21251 6.28499 5.47501L5.94749 5.72251L4.16249 5.01001L3.11999 6.80251L4.64249 7.98751L4.58999 8.40751C4.56749 8.60251 4.54499 8.80501 4.54499 9.00001C4.54499 9.19501 4.55999 9.39751 4.58999 9.58501L4.64249 10.005L3.11999 11.19L4.15499 12.99L5.94749 12.27L6.28499 12.5325C6.60749 12.78 6.92999 12.9675 7.28249 13.11L7.67999 13.275L7.96499 15.1875ZM11.625 9.00001C11.625 10.4498 10.4497 11.625 8.99999 11.625C7.55024 11.625 6.37499 10.4498 6.37499 9.00001C6.37499 7.55026 7.55024 6.37501 8.99999 6.37501C10.4497 6.37501 11.625 7.55026 11.625 9.00001Z" fill="black"/>
</svg>
