<svg width="24" height="24" viewBox="0 0 24 24" fill="none" xmlns="http://www.w3.org/2000/svg">
<path d="M12 2.00003C6.48 2.00003 2 6.48003 2 12C2 17.52 6.48 22 12 22C17.52 22 22 17.52 22 12C22 6.48003 17.52 2.00003 12 2.00003ZM12 5.00003C13.66 5.00003 15 6.34003 15 8.00003C15 9.66003 13.66 11 12 11C10.34 11 9 9.66003 9 8.00003C9 6.34003 10.34 5.00003 12 5.00003ZM12 19.2C9.5 19.2 7.29 17.92 6 15.98C6.03 13.99 10 12.9 12 12.9C13.99 12.9 17.97 13.99 18 15.98C16.71 17.92 14.5 19.2 12 19.2Z" fill="#F7A600"/>
</svg>
