<svg width="18" height="18" viewBox="0 0 18 18" fill="none" xmlns="http://www.w3.org/2000/svg">
<path d="M15 11.4825L16.425 10.0575C17.01 9.47248 17.01 8.51998 16.425 7.93498L15 6.51748V4.49998C15 3.67498 14.325 2.99998 13.5 2.99998H11.4825L10.0575 1.57498C9.47254 0.98998 8.52004 0.98998 7.93504 1.57498L6.51754 2.99998H4.50004C3.67504 2.99998 3.00004 3.67498 3.00004 4.49998V6.51748L1.57504 7.94248C0.990042 8.52748 0.990042 9.47998 1.57504 10.065L3.00004 11.49V13.5C3.00004 14.325 3.67504 15 4.50004 15H6.51754L7.94254 16.425C8.52754 17.01 9.48004 17.01 10.065 16.425L11.49 15H13.5C14.325 15 15 14.325 15 13.5V11.4825ZM9.00004 12.675V5.32498C9.00004 4.86748 9.41254 4.49248 9.86254 4.58248C11.9325 4.98748 13.5 6.80998 13.5 8.99998C13.5 11.19 11.9325 13.0125 9.86254 13.4175C9.41254 13.5075 9.00004 13.1325 9.00004 12.675Z" fill="#F7A600"/>
</svg>
