<svg width="16" height="20" viewBox="0 0 16 20" fill="none" xmlns="http://www.w3.org/2000/svg">
<path fill-rule="evenodd" clip-rule="evenodd" d="M7.99984 6.54543C8.73317 6.54543 9.33317 5.80907 9.33317 4.90907C9.33317 4.00907 8.73317 3.27271 7.99984 3.27271C7.2665 3.27271 6.6665 4.00907 6.6665 4.90907C6.6665 5.80907 7.2665 6.54543 7.99984 6.54543ZM7.99984 8.1818C7.2665 8.1818 6.6665 8.91816 6.6665 9.81816C6.6665 10.7182 7.2665 11.4545 7.99984 11.4545C8.73317 11.4545 9.33317 10.7182 9.33317 9.81816C9.33317 8.91816 8.73317 8.1818 7.99984 8.1818ZM6.6665 14.7273C6.6665 13.8273 7.2665 13.0909 7.99984 13.0909C8.73317 13.0909 9.33317 13.8273 9.33317 14.7273C9.33317 15.6273 8.73317 16.3636 7.99984 16.3636C7.2665 16.3636 6.6665 15.6273 6.6665 14.7273Z" fill="white"/>
</svg>
